<?xml version="1.0" encoding="UTF-8" standalone="no"?>
<!-- Created with Inkscape (http://www.inkscape.org/) -->

<svg
   xmlns:dc="http://purl.org/dc/elements/1.1/"
   xmlns:cc="http://creativecommons.org/ns#"
   xmlns:rdf="http://www.w3.org/1999/02/22-rdf-syntax-ns#"
   xmlns:svg="http://www.w3.org/2000/svg"
   xmlns="http://www.w3.org/2000/svg"
   xmlns:sodipodi="http://sodipodi.sourceforge.net/DTD/sodipodi-0.dtd"
   xmlns:inkscape="http://www.inkscape.org/namespaces/inkscape"
   width="210mm"
   height="297mm"
   viewBox="0 0 210 297"
   version="1.1"
   id="svg8"
   inkscape:version="0.92.4 (5da689c313, 2019-01-14)"
   sodipodi:docname="Gears.svg">
  <defs
     id="defs2" />
  <sodipodi:namedview
     id="base"
     pagecolor="#ffffff"
     bordercolor="#666666"
     borderopacity="1.0"
     inkscape:pageopacity="0.0"
     inkscape:pageshadow="2"
     inkscape:zoom="0.98994949"
     inkscape:cx="487.84828"
     inkscape:cy="805.23584"
     inkscape:document-units="mm"
     inkscape:current-layer="g38"
     showgrid="false"
     inkscape:window-width="1600"
     inkscape:window-height="837"
     inkscape:window-x="-8"
     inkscape:window-y="-8"
     inkscape:window-maximized="1" />
  <metadata
     id="metadata5">
    <rdf:RDF>
      <cc:Work
         rdf:about="">
        <dc:format>image/svg+xml</dc:format>
        <dc:type
           rdf:resource="http://purl.org/dc/dcmitype/StillImage" />
        <dc:title></dc:title>
      </cc:Work>
    </rdf:RDF>
  </metadata>
  <g
     inkscape:label="Layer 1"
     inkscape:groupmode="layer"
     id="layer1">
    <g
       id="g38"
       transform="matrix(0.26458333,0,0,0.26458333,29.98793,91.099001)">
      <path
         id="path3723"
         style="fill:#000000;stroke:#000000;stroke-width:4.02349329;stroke-miterlimit:4;stroke-dasharray:none;stroke-opacity:1"
         d="m 205.62348,-296.26852 c -3.42114,0.25045 -4.44962,3.2762 -8.30676,15.08349 -2.85388,8.73618 -5.8552,16.58957 -6.67039,17.45487 -0.81515,0.86528 -7.49221,2.309 -14.83847,3.20342 l -13.35927,1.62254 -9.80912,-14.44094 c -5.39396,-7.94299 -10.70256,-14.44092 -11.79681,-14.44092 -8.25642,0 -40.43738,19.62813 -40.43371,24.66145 10e-4,1.40647 3.18187,9.27742 7.06793,17.49183 l 7.06793,14.93556 -7.65962,10.59033 c -8.357414,11.55497 -7.415207,11.37506 -36.106973,6.78131 l -9.513266,-1.5208 -4.164931,11.57493 c -2.289746,6.36755 -5.033863,17.08434 -6.097201,23.81091 l -1.932225,12.22671 16.756856,5.5887 16.756831,5.58409 2.454591,14.01565 2.449977,14.01567 -14.838477,10.10957 c -8.162508,5.55974 -14.843117,11.01895 -14.843117,12.13427 0,8.289174 19.612968,40.479014 24.661482,40.475321 1.406471,-0.001 9.277394,-3.181873 17.491829,-7.067928 l 14.935564,-7.067929 10.59032,7.659619 c 11.56333,8.36347 11.37856,7.390494 6.75358,36.277993 l -1.54854,9.684311 16.22062,4.946152 c 8.92001,2.720732 19.6025,5.51015 23.74156,6.198877 7.49192,1.246857 7.55143,1.176399 13.20672,-15.813843 l 5.68115,-17.066546 13.84923,-2.107908 c 13.52119,-2.057638 13.98302,-1.944981 19.32702,4.733521 7.02474,8.778978 6.89985,9.776639 -1.06781,8.607246 -5.98824,-0.878896 -6.93035,0.0523 -10.71977,10.590331 -2.28473,6.353594 -5.02428,17.0544759 -6.08794,23.7831766 l -1.93223,12.2359634 15.61045,5.098712 c 8.58597,2.803902 16.2752,5.762732 17.08505,6.577916 0.80985,0.815183 2.17819,6.169175 3.04166,11.893895 l 1.56706,10.405441 -15.55499,-14.547272 c -8.55494,-8.002728 -16.67563,-14.551863 -18.04654,-14.551863 -1.37093,0 -8.50198,5.357352 -15.84621,11.903126 -11.63591,10.370956 -14.27149,11.701124 -20.49653,10.368448 -9.90761,-2.12102 -9.15107,-1.087101 -15.44403,-21.152924 l -5.68114,-18.1112585 -13.08653,1.63640176 C 123.81844,1.3323824 103.28151,7.8446904 96.031364,12.4967 c -2.664712,1.709795 -2.561,5.129835 0.637937,20.598203 l 3.836729,18.545795 -5.662661,5.662664 -5.662665,5.662665 -18.48568,-3.822887 C 55.92632,56.088907 51.825646,55.922547 50.286329,58.315697 45.761792,65.349894 39.232633,86.031296 37.726782,98.083761 l -1.627148,13.017179 18.420972,5.97699 c 16.915712,5.48851 18.588279,6.60755 20.413311,13.65047 1.827612,7.05299 0.997306,8.80957 -10.317586,21.8186 -11.839602,13.61213 -12.182404,14.38695 -8.967822,20.4734 4.255436,8.05711 27.54642,30.95482 33.365788,32.80182 3.117024,0.9893 8.544314,-2.16685 18.411743,-10.71513 12.69282,-10.996 14.67702,-11.94154 21.42564,-10.19279 6.73117,1.7442 8.03575,3.69295 13.71058,20.48727 l 6.26823,18.55502 12.65198,-1.48384 c 13.42009,-1.57725 37.66167,-9.26054 41.5755,-13.17435 1.54152,-1.54153 0.98507,-8.5921 -1.63641,-20.67217 l -3.98003,-18.33317 5.43152,-5.42691 5.4269,-5.43152 18.54581,3.83673 c 15.46832,3.19891 18.88841,3.30268 20.59819,0.63794 4.70027,-7.32534 11.60778,-29.00518 12.98945,-40.76192 1.39043,-11.83039 1.13648,-12.71779 -4.12332,-14.22369 -5.39396,-1.54428 -5.27037,-1.7849 3.2774,-6.3283 l 8.88921,-4.7289 10.71978,7.75669 c 11.81011,8.54627 11.3272,5.76786 6.54094,37.77572 l -1.30356,8.71817 16.26687,4.70582 c 32.01287,9.25483 30.16782,9.76371 37.53072,-10.42393 3.53774,-9.70006 7.77274,-17.63514 9.41155,-17.63514 1.63885,0 7.7977,-0.65869 13.68284,-1.46535 l 10.70129,-1.47 9.83222,14.48718 c 5.40967,7.96611 11.12881,14.46031 12.70745,14.43168 5.29498,-0.0958 23.38179,-9.33268 32.64467,-16.66903 l 9.17583,-7.26668 -8.27904,-16.44251 -8.28367,-16.447137 7.74282,-10.696653 c 8.44914,-11.676832 7.46436,-11.486099 36.18557,-6.887642 l 9.51326,1.520831 4.16494,-11.574956 c 2.28974,-6.367551 5.0335,-17.082189 6.09718,-23.810891 l 1.93224,-12.235986 -15.61044,-5.098689 c -8.58597,-2.803901 -16.31688,-5.762755 -17.18214,-6.577938 -0.8653,-0.815184 -2.3089,-7.492195 -3.20344,-14.8384783 l -1.62253,-13.359251 14.44093,-9.8091107 c 7.94299,-5.393966 14.41873,-11.096464 14.39009,-12.675116 -0.16235,-8.967822 -19.34251,-39.560146 -24.80015,-39.555412 -1.30171,9.94e-4 -9.08786,3.181873 -17.30229,7.067928 l -14.93556,7.067905 -10.59034,-7.659595 c -11.56333,-8.36347 -11.37846,-7.390518 -6.7536,-36.278016 l 1.54858,-9.684313 -16.22062,-4.94615 c -8.92002,-2.72073 -19.60251,-5.51003 -23.74158,-6.19888 -7.4919,-1.24685 -7.55145,-1.1764 -13.20671,15.81385 l -5.68114,17.066565 -13.84927,2.107885 c -13.52107,2.057566 -13.98299,1.944956 -19.32699,-4.733521 -7.02474,-8.778908 -6.89984,-9.77664 1.06781,-8.607246 5.98823,0.878896 6.93035,-0.0523 10.71976,-10.590333 2.28473,-6.35359 5.02426,-17.05445 6.08794,-23.78315 l 1.93225,-12.23599 -15.61045,-5.09869 c -8.58597,-2.8039 -16.31688,-5.76275 -17.18214,-6.57794 -0.86529,-0.81518 -2.30889,-7.49219 -3.20343,-14.83847 l -1.62254,-13.35926 14.44094,-9.80911 c 7.94299,-5.39399 14.41872,-11.09649 14.39008,-12.67511 -0.16235,-8.96782 -19.3425,-39.55968 -24.80014,-39.55541 -1.30172,9.6e-4 -9.08787,3.18184 -17.3023,7.06793 l -14.93556,7.06791 -10.59033,-7.6596 c -11.56333,-8.36348 -11.37847,-7.39055 -6.75361,-36.27802 l 1.54858,-9.68431 -16.22061,-4.94615 c -8.92002,-2.72074 -19.60498,-5.50961 -23.74622,-6.19888 -1.86566,-0.31054 -3.26955,-0.53651 -4.40994,-0.45303 z m 7.65037,12.4255 c 0.64948,-0.0116 1.37085,0.0237 2.18186,0.0785 12.78686,0.87816 24.31178,5.88822 23.17299,9.9339 -0.58076,2.06321 -1.8856,10.15841 -3.42994,17.93563 -2.51998,12.69045 -2.38725,14.38924 1.28045,16.56732 2.24768,1.33481 9.30387,6.51975 15.67978,11.51945 l 11.58882,9.08801 15.90168,-7.43774 c 17.87737,-8.36584 17.2943,-8.57986 26.8433,9.85533 l 4.53938,8.75979 -15.26838,10.89543 c -14.12023,10.07601 -15.09692,11.34093 -13.00792,16.83543 1.24219,3.26727 2.26042,11.64194 2.26042,18.61051 v 12.6705 l 15.97563,5.21889 c 8.7866,2.87067 16.87998,6.04358 17.98646,7.05404 1.1065,1.01047 0.23961,7.93823 -1.92761,15.3932 l -3.93843,13.5534 -9.9062,-1.44687 c -5.44787,-0.79569 -13.69118,-2.09861 -18.31466,-2.89834 -7.77506,-1.34489 -8.85586,-0.77457 -14.43169,7.65036 -3.31569,5.009893 -8.75451,11.731989 -12.08343,14.935543 l -6.05096,5.824455 8.20508,16.294604 c 9.23149,18.331272 9.39274,17.849802 -9.20354,27.758577 l -8.843,4.710422 -10.09109,-15.37933 c -7.06973,-10.77116 -11.15937,-14.957274 -13.64587,-13.969388 -1.95258,0.775753 -10.67984,1.96763 -19.39633,2.644098 l -15.85082,1.229627 -6.36066,17.440991 c -3.49876,9.593001 -7.01948,17.367006 -7.82141,17.279199 -4.3974,-0.481778 -24.22934,-6.437045 -25.42881,-7.636519 -0.77579,-0.775659 -0.22272,-8.212376 1.22499,-16.525718 3.53735,-20.313125 3.7928,-19.247657 -6.24513,-25.89106 -4.88145,-3.230675 -11.49623,-8.59733 -14.69978,-11.92625 l -5.82446,-6.050954 -16.50723,8.311401 c -18.558154,9.345722 -17.901969,9.565736 -27.615297,-9.185067 l -4.511638,-8.713561 13.576521,-9.62883 c 7.465686,-5.29622 14.372983,-9.89434 15.351591,-10.22053 0.978584,-0.32621 0.712276,-4.31482 -0.59169,-8.86148 -1.303967,-4.54669 -2.3714,-13.24601 -2.3714,-19.33163 v -11.06646 l -15.975635,-5.21889 c -8.786599,-2.87067 -15.666299,-6.45707 -16.752217,-7.44699 -1.085917,-0.9899 -1.336296,-7.9101 0.90602,-15.90168 3.140148,-11.19137 4.95285,-14.28039 7.890757,-13.4517 2.097897,0.59176 10.176858,2.33863 17.954082,3.88299 12.690476,2.51986 14.389266,2.38721 16.567326,-1.28048 1.3348,-2.24768 6.51976,-9.30387 11.51947,-15.67978 l 9.08799,-11.5888 -7.43772,-15.9017 c -7.06731,-15.10237 -6.59985,-15.79429 -2.54706,-18.83699 5.67417,-4.25996 21.69066,-13.09546 22.43339,-12.13891 0.3232,0.41625 5.03134,7.38094 10.46089,15.47642 9.20261,13.72108 10.28279,14.56353 15.90631,12.42549 3.31778,-1.26146 11.73209,-2.29279 18.69834,-2.29279 h 12.66587 l 5.7782,-17.15903 c 4.79674,-14.23776 5.89608,-16.67694 10.44241,-16.76611 z m -24.34713,93.8014 c -2.94894,0.0755 -5.92762,0.568 -8.87071,1.53932 -16.44352,5.42684 -27.21607,22.99822 -24.14372,39.37511 1.96009,10.44828 13.81807,24.01204 23.43184,26.79711 10.05227,2.91211 10.89352,2.91786 20.86632,0.14792 10.67156,-2.96401 22.50545,-15.94539 24.56901,-26.94503 4.01509,-21.40228 -15.21013,-41.44328 -35.85274,-40.91443 z m 2.22348,11.55181 c 3.20886,0.1136 6.55232,0.87352 9.91082,2.40375 16.26854,7.41243 16.75022,32.87142 0.77658,41.13172 -12.01106,6.21116 -25.65172,2.48093 -31.85881,-8.7182 -9.54536,-17.22185 3.84365,-35.43055 21.17141,-34.81727 z m 178.14496,72.23244 c 12.78685,0.87817 24.74632,5.92983 23.60752,9.975522 -0.58075,2.0632 -2.32013,10.116791 -3.86447,17.894013 -2.51998,12.690477 -2.38725,14.389243 1.28045,16.567325 2.24768,1.334806 9.30387,6.51974 15.67978,11.519451 l 11.58882,9.088006 15.90168,-7.437735 c 17.20419,-7.974966 17.22913,-7.950044 26.8433,9.855333 l 4.53938,8.759785 -15.26838,10.895431 c -14.12024,10.0759854 -15.09692,11.3409486 -13.00792,16.8354303 1.24219,3.26724227 2.26042,11.6418833 2.26042,18.6105027 v 12.670501 l 15.97563,5.218896 c 8.78659,2.870669 15.75207,6.912623 16.85855,7.923087 1.10651,1.010489 1.36752,7.069184 -0.79971,14.524149 l -3.93843,13.553399 -9.90619,-1.446871 c -5.44788,-0.79569 -13.69119,-2.098607 -18.31466,-2.898339 -7.77506,-1.344893 -8.85587,-0.774573 -14.43169,7.650368 -3.3157,5.009886 -8.75451,11.73198 -12.08344,14.935533 l -6.05095,5.824465 8.20508,16.294598 c 9.23149,18.33127 9.39273,17.8498 -9.20354,27.75857 l -8.843,4.71043 -10.0911,-15.37934 c -7.06972,-10.77115 -11.15936,-14.9573 -13.64586,-13.96942 -1.95258,0.77575 -10.67984,1.96763 -19.39633,2.6441 l -15.85082,1.22962 -6.36066,17.441 c -3.49879,9.59299 -7.71288,15.199 -8.51481,15.1112 -4.39739,-0.48178 -21.6222,-5.2213 -22.82167,-6.42077 -0.77578,-0.77577 -2.13646,-7.26013 -0.68875,-15.57347 3.53737,-20.31312 3.79277,-19.24766 -6.24513,-25.89106 -4.88145,-3.230675 -11.49623,-8.59733 -14.69979,-11.926245 l -5.82445,-6.050955 -16.00799,8.061772 c -8.80485,4.434029 -16.52593,8.061788 -17.1544,8.061788 -0.6285,0 -4.03588,-4.935813 -7.57179,-10.969398 l -6.42538,-10.969368 11.65815,-11.121925 c 6.41181,-6.116425 12.98906,-11.564046 14.61659,-12.106555 2.23103,-0.743683 2.37454,-3.021785 0.58708,-9.254389 -1.30398,-4.54669 -2.3714,-13.246002 -2.3714,-19.331631 V 15.542982 l -15.97564,-5.218897 c -8.7866,-2.8706674 -16.86354,-6.0271922 -17.94947,-7.0170903 -3.14698,-2.86875109 5.66443,-31.2003207 9.27291,-29.8156227 1.68126,0.645178 9.77383,2.389954 17.98181,3.878339 13.64579,2.474472 15.12336,2.33223 17.30233,-1.645633 1.31064,-2.392676 6.37915,-8.298856 11.2606,-13.128137 4.88143,-4.829304 8.87636,-10.154515 8.87534,-11.833803 -10e-4,-1.679312 -3.10533,-9.611298 -6.89689,-17.625883 l -5.63028,-14.487179 3.85522,-4.76126 c 5.32022,-4.859339 20.49737,-13.256606 21.54121,-11.916995 0.32837,0.421401 5.04061,7.390162 10.47015,15.485644 9.20261,13.721082 10.28279,14.563531 15.90631,12.425494 3.31775,-1.26146 11.73209,-2.2928 18.69834,-2.2928 h 12.66586 l 5.7782,-17.159015 c 4.79675,-14.237774 6.29827,-15.724714 10.8446,-15.813844 0.64949,-0.0118 0.96864,-0.92928 1.77968,-0.87367 z m -26.52899,93.722807 c -2.94894,0.0755 -5.9276,0.567998 -8.87071,1.539317 -16.44353,5.4268403 -27.21605,22.998217 -24.14373,39.375111 1.9601,10.44828 13.81809,24.012043 23.43185,26.797104 10.0523,2.912135 10.89354,2.917862 20.86632,0.147923 10.67155,-2.964012 22.50545,-15.945388 24.56901,-26.945027 4.01509,-21.4022852 -15.21013,-41.443282 -35.85274,-40.914428 z m 2.22348,11.55180352 c 3.20886,0.11360557 6.55232,0.87352418 9.91081,2.40375368 16.26854,7.4124342 16.75023,32.8714188 0.77658,41.1317208 -12.01105,6.211162 -25.64698,2.481052 -31.85418,-8.718199 -9.54537,-17.221853 3.839,-35.4305743 21.16679,-34.81727548 z M 139.09995,9.8988022 c 1.60029,0.031945 2.41935,0.4478378 2.6626,1.2342418 9.59561,31.020777 11.29754,34.794152 15.71677,34.794152 2.53912,0 8.51278,1.626555 13.27144,3.614848 l 8.64883,3.614848 10.79835,-10.257494 C 208.57,25.445627 206.8912,25.610093 221.01207,39.908594 l 12.60577,12.767562 -13.24371,13.881591 -13.24368,13.886236 3.33751,9.365345 c 1.83519,5.152372 3.38678,11.145782 3.44382,13.317672 0.0725,2.74994 4.95213,5.53649 16.07732,9.1712 8.78659,2.87066 16.91756,6.08114 18.06967,7.13725 2.02567,1.85686 -0.74441,16.55774 -5.45465,28.94659 l -2.20497,5.79672 -18.1159,-3.60562 -18.12051,-3.60561 -9.58722,9.58722 -9.59185,9.59187 3.23117,16.216 c 1.7756,8.92027 3.24403,17.24867 3.26817,18.50419 0.0241,1.25549 -5.81151,4.1206 -12.97095,6.36529 -7.15946,2.24469 -14.9141,4.14551 -17.23299,4.22503 -4.58273,0.15717 -4.96446,-0.54545 -11.15889,-20.56584 -3.88923,-12.57003 -4.8001,-13.65275 -12.88775,-15.3331 -4.78746,-0.99471 -10.80802,-2.93758 -13.37776,-4.31286 -3.97963,-2.12985 -6.8371,-0.54114 -19.28077,10.71974 L 89.966539,195.18566 77.032571,182.2563 64.098602,169.32233 77.397762,154.95534 90.696923,140.59299 87.27158,132.38793 c -1.885432,-4.51252 -3.429957,-10.28301 -3.429957,-12.82305 0,-3.70296 -3.533715,-5.66891 -17.838536,-9.91542 -9.81233,-2.91297 -18.286422,-6.01173 -18.827747,-6.88766 -0.883086,-1.42883 7.718031,-33.204818 9.513265,-35.145473 0.40474,-0.437542 8.826078,1.004127 18.712203,3.203437 l 17.972589,3.998548 9.619583,-9.614961 9.61496,-9.619606 -3.99852,-17.972565 c -2.19946,-9.886126 -3.59717,-18.378584 -3.10637,-18.869379 0.49079,-0.490796 8.6502,-3.039087 18.13438,-5.66728 7.95591,-2.204684 12.79537,-3.229018 15.46252,-3.1757188 z m 10.54411,71.5298008 c -15.34284,0 -30.28252,14.595412 -30.28252,29.584507 0,9.81977 8.04501,22.07784 17.18676,26.18692 23.3164,10.48038 48.32184,-12.35609 39.34739,-35.93593 -4.03492,-10.601385 -16.25654,-19.835497 -26.25163,-19.835497 z m -0.38368,11.833804 c 15.31696,0 23.12394,19.849813 11.94012,30.356483 -11.45212,10.7587 -30.02366,2.75443 -30.02366,-12.93861 0,-9.1467 8.58852,-17.417873 18.08354,-17.417873 z"
         inkscape:connector-curvature="0" />
      <path
         inkscape:connector-curvature="0"
         id="path4912"
         d="m 154.03224,193.64104 c -2.86652,-8.60739 -6.26691,-16.49386 -7.55641,-17.52549 -2.65153,-2.12125 -23.04725,-8.24662 -27.45889,-8.24662 -1.58902,0 -8.34092,4.86454 -15.00424,10.81011 -6.663313,5.94556 -12.775248,10.81014 -13.582071,10.81014 -0.806825,0 -6.126313,-4.71797 -11.821087,-10.48438 -9.146916,-9.26196 -9.992623,-10.7844 -7.253518,-13.05765 1.705338,-1.4153 7.414225,-7.55255 12.686414,-13.63832 l 9.585798,-11.06504 -4.537306,-13.48258 c -2.495518,-7.41543 -5.725993,-14.23594 -7.17883,-15.15671 -1.452838,-0.92076 -8.39054,-3.56606 -15.417117,-5.87844 -7.026576,-2.3124 -13.482354,-4.84585 -14.346175,-5.62993 -2.219673,-2.014808 4.550884,-27.705736 7.610999,-28.88002 1.390967,-0.533752 9.793961,0.511296 18.673323,2.322341 l 16.144293,3.292823 10.567087,-10.567095 10.56708,-10.567087 -3.70378,-18.057579 -3.70378,-18.057603 10.05172,-2.885342 c 22.23463,-6.382419 19.78407,-7.367181 25.67339,10.316852 2.88225,8.654581 6.29549,16.568698 7.58499,17.586903 1.28949,1.018226 8.36733,3.827619 15.72851,6.243088 l 13.38397,4.391761 12.48848,-11.992045 c 6.86863,-6.595617 13.20055,-11.992045 14.07087,-11.992045 0.87034,0 6.2577,4.617195 11.97192,10.260429 l 10.38945,10.260427 -12.94884,13.048847 -12.94889,13.048879 4.13611,13.391152 c 2.27486,7.365151 5.01651,14.451984 6.09257,15.748564 1.07606,1.29657 8.57564,4.77154 16.66575,7.72216 16.61132,6.05851 16.90825,6.67509 11.68491,24.26398 -1.71247,5.7665 -4.17898,10.18413 -5.68619,10.18413 -1.46401,0 -9.51157,-1.41655 -17.88346,-3.14792 l -15.22163,-3.14788 -10.84209,10.84208 -10.84206,10.84206 3.25202,16.38291 c 1.78862,9.01061 3.25134,17.02156 3.2505,17.8021 -0.001,1.2162 -4.39158,2.68236 -25.85821,8.63552 -2.55905,0.70967 -4.36646,-2.43895 -8.46558,-14.74748 z m 12.17072,-56.52691 c 10.0307,-7.48899 13.3069,-13.90251 13.3069,-26.04977 0,-9.36092 -0.94912,-12.554697 -5.50667,-18.529966 -6.90921,-9.058419 -14.62487,-13.111883 -24.95821,-13.111883 -19.81679,0 -36.20852,20.175836 -31.18197,38.380509 2.12595,7.69955 12.06251,20.04606 18.29892,22.73702 6.67261,2.87919 24.28649,0.8705 30.04103,-3.42591 z"
         style="fill:#ffeeaa;stroke:#000000;stroke-width:3.93095207;stroke-miterlimit:4;stroke-dasharray:none;stroke-opacity:1" />
      <path
         inkscape:connector-curvature="0"
         id="path4914"
         d="m 155.22863,-32.01388 -8.55742,-3.024909 1.53355,-13.035124 c 2.3556,-20.022489 1.91838,-22.297656 -5.33584,-27.765985 -3.59259,-2.708131 -10.18396,-8.240633 -14.64747,-12.294428 -4.46352,-4.053793 -9.14423,-7.370533 -10.40159,-7.370533 -1.25736,0 -8.4332,3.095623 -15.94631,6.879165 -7.513107,3.783542 -14.551844,6.879166 -15.641631,6.879166 -1.59417,0 -11.875033,-17.532735 -11.875033,-20.251392 0,-0.40002 6.278105,-5.05597 13.951343,-10.34656 l 13.951341,-9.61926 -1.41473,-9.8649 c -0.7781,-5.4257 -1.97053,-14.99748 -2.649852,-21.27062 l -1.235127,-11.40572 -15.72381,-5.45519 c -10.305986,-3.57554 -15.944521,-6.59624 -16.364372,-8.76679 -0.352311,-1.82138 0.785689,-7.60565 2.528886,-12.85393 l 3.169455,-9.54233 12.212182,2.6205 c 21.338258,4.57877 21.304858,4.59122 34.655338,-12.91232 6.57397,-8.61899 11.95268,-16.50711 11.95268,-17.52913 0,-1.02201 -3.0747,-8.27404 -6.83267,-16.1156 -7.65494,-15.97318 -8.08405,-14.68237 7.67838,-23.09793 l 7.7249,-4.12434 8.42808,12.56333 c 4.63544,6.90981 9.18967,13.034 10.1205,13.60928 0.93084,0.57529 10.98866,0.51955 22.35071,-0.12387 l 20.65828,-1.16986 5.35007,-16.42822 c 5.269,-16.17927 5.44802,-16.42822 11.81404,-16.42822 3.55518,0 9.33275,1.00007 12.83906,2.22237 5.78275,2.01588 6.26649,2.79204 5.20626,8.35328 -0.64286,3.37199 -1.71449,11.44262 -2.38139,17.93473 l -1.21254,11.80382 16.09018,12.32209 16.09017,12.32209 15.34399,-6.928 c 8.43918,-3.81041 15.88111,-6.928 16.5376,-6.928 1.0943,0 11.08721,18.3862 11.08721,20.39964 0,0.48155 -5.64233,4.90183 -12.53849,9.82283 -13.49803,9.63199 -15.62361,12.71015 -13.79847,19.98214 0.64691,2.57746 1.75169,11.0176 2.45509,18.75585 l 1.27891,14.06956 15.29634,5.39275 c 8.41301,2.96601 15.85178,5.94818 16.53066,6.62705 0.67887,0.67886 0.12026,6.2125 -1.24143,12.29698 l -2.4757,11.06268 -9.14126,-1.31361 c -28.56591,-4.10498 -26.69359,-4.33505 -32.813,4.03205 -3.06146,4.18591 -9.11478,11.362267 -13.45183,15.947445 l -7.88552,8.336682 7.30167,14.266275 c 4.01592,7.846451 7.2884,15.673542 7.27214,17.393515 -0.0166,1.719972 -4.40045,5.506126 -9.74266,8.413716 l -9.71309,5.286538 -7.76951,-11.441134 c -11.29955,-16.639322 -11.5071,-16.747743 -29.23276,-15.271334 -26.47132,2.20485 -24.73016,1.121513 -31.82595,19.80181 -3.47163,9.139413 -7.36732,16.54728 -8.65711,16.461934 -1.28977,-0.0852 -6.19587,-1.51636 -10.90245,-3.180027 z m 52.30398,-90.46812 c 10.86471,-5.55587 20.13141,-20.23984 20.13141,-31.90013 0,-36.56548 -46.65217,-51.8026 -67.64151,-22.09247 -8.39984,11.88985 -9.30531,26.6505 -2.36168,38.49893 11.30092,19.28354 30.6845,25.30544 49.87178,15.49367 z"
         style="fill:#e9ddaf;stroke:#000000;stroke-width:3.93095207;stroke-miterlimit:4;stroke-dasharray:none;stroke-opacity:1" />
      <path
         inkscape:connector-curvature="0"
         id="path4920"
         d="m 308.24853,145.4456 c -7.67079,-2.83497 -7.97719,-4.33976 -5.15684,-25.32632 1.49816,-11.14794 1.39882,-11.50056 -4.70562,-16.70654 -3.42984,-2.92502 -10.62723,-9.247927 -15.9942,-14.05092 l -9.75812,-8.732731 -16.53075,8.198413 -16.53074,8.198413 -5.36567,-9.155813 -5.36566,-9.155813 13.08486,-11.977205 13.08484,-11.977208 -1.17604,-20.767308 -1.17605,-20.767285 -16.37731,-5.3334945 c -9.00751,-2.933434 -16.90184,-6.1821914 -17.5429,-7.2194721 -0.64109,-1.03730393 0.27226,-6.8321277 2.02968,-12.8774024 3.02321,-10.399452 3.48018,-10.927809 8.48524,-9.810673 2.90946,0.649415 11.03895,1.683335 18.06554,2.297627 l 12.77558,1.116898 11.3015,-13.798144 c 6.21582,-7.588971 11.30149,-15.236046 11.30149,-16.993507 0,-1.757438 -2.69378,-9.332872 -5.98616,-16.834273 -3.2924,-7.501396 -5.39791,-14.590717 -4.67893,-15.754047 0.71897,-1.163329 5.33297,-4.668194 10.25331,-7.788591 l 8.94613,-5.673449 8.23758,12.279348 c 11.65781,17.377738 12.53391,17.926235 24.52532,15.354536 5.49922,-1.179357 14.27719,-2.144309 19.50658,-2.144309 h 9.50798 l 5.62772,-16.215179 c 6.39732,-18.432681 8.78464,-19.904131 23.29935,-14.360901 l 8.31889,3.177007 -2.64581,11.242691 c -5.00915,21.285034 -4.67008,22.201515 13.27848,35.891427 l 15.98569,12.19277 13.98782,-6.141389 c 7.69329,-3.377769 15.31451,-6.126455 16.93602,-6.108207 1.62152,0.01893 5.3289,4.350793 8.2386,9.627888 l 5.2904,9.594707 -11.74654,8.239759 C 434.27153,-12.074985 431.5419,-7.9034282 434.06562,0.89625958 435.13199,4.6144875 436.00447,13.00811 436.00447,19.548772 v 11.892073 l 16.70656,5.44071 c 18.41525,5.997181 18.50698,6.133317 14.59719,21.660546 l -2.10936,8.376961 -16.07129,-2.335809 c -8.83922,-1.284696 -17.06556,-1.957377 -18.28074,-1.494841 -1.21519,0.462537 -7.90818,7.6799 -14.8733,16.038619 l -12.6639,15.197626 7.44518,15.432793 c 4.09485,8.48803 6.98314,16.18037 6.41846,17.09405 -0.5647,0.91369 -5.1197,4.05992 -10.12224,6.99161 l -9.09553,5.33032 -4.06985,-5.62717 c -2.23842,-3.09492 -6.78892,-9.24206 -10.11222,-13.66025 l -6.04237,-8.03315 -13.6124,0.6915 c -7.48682,0.38032 -17.09978,1.28063 -21.36212,2.00072 -7.57946,1.28046 -7.88304,1.65392 -13.81656,16.99779 -6.65514,17.20998 -8.46054,18.42303 -20.69145,13.90273 z M 356.9572,56.71527 C 379.69386,47.217624 388.14421,23.263616 375.79288,3.3221884 359.81714,-22.470864 324.86591,-20.599608 310.5769,6.8138232 c -9.03582,17.3351498 -1.2692,39.1507908 17.27778,48.5316128 10.25733,5.188011 18.97929,5.598549 29.10252,1.369834 z"
         style="fill:#cdde87;stroke:#000000;stroke-width:3.93095207;stroke-miterlimit:4;stroke-dasharray:none;stroke-opacity:1" />
      <flowRoot
         style="font-style:normal;font-weight:normal;font-size:40px;line-height:1.25;font-family:sans-serif;letter-spacing:0px;word-spacing:0px;fill:#000000;fill-opacity:1;stroke:none"
         id="flowRoot10"
         xml:space="preserve"
         transform="matrix(2.3667607,0,0,2.3667607,-46.32934,-309.0854)"><flowRegion
           id="flowRegion12"><rect
             y="178.54671"
             x="242.49135"
             height="44.844288"
             width="331.34946"
             id="rect14" /></flowRegion><flowPara
           id="flowPara16">ggloba</flowPara></flowRoot>      <flowRoot
         style="font-style:normal;font-weight:normal;font-size:40px;line-height:1.25;font-family:sans-serif;letter-spacing:0px;word-spacing:0px;fill:#000000;fill-opacity:1;stroke:none"
         id="flowRoot18"
         xml:space="preserve"
         transform="matrix(2.3667607,0,0,2.3667607,-46.32934,-309.0854)"><flowRegion
           id="flowRegion20"><rect
             y="165.18164"
             x="219.53906"
             height="46.583065"
             width="127.58896"
             id="rect22" /></flowRegion><flowPara
           id="flowPara24" /></flowRoot>    </g>
  </g>
</svg>
