<?xml version="1.0" encoding="UTF-8" standalone="no"?>
<!-- Created with Inkscape (http://www.inkscape.org/) -->

<svg
   xmlns:dc="http://purl.org/dc/elements/1.1/"
   xmlns:cc="http://creativecommons.org/ns#"
   xmlns:rdf="http://www.w3.org/1999/02/22-rdf-syntax-ns#"
   xmlns:svg="http://www.w3.org/2000/svg"
   xmlns="http://www.w3.org/2000/svg"
   xmlns:sodipodi="http://sodipodi.sourceforge.net/DTD/sodipodi-0.dtd"
   xmlns:inkscape="http://www.inkscape.org/namespaces/inkscape"
   version="1.1"
   id="svg3713"
   width="600"
   height="240"
   viewBox="0 0 600 240"
   sodipodi:docname="pyGOURGS.svg"
   inkscape:version="0.92.4 (5da689c313, 2019-01-14)">
  <metadata
     id="metadata3719">
    <rdf:RDF>
      <cc:Work
         rdf:about="">
        <dc:format>image/svg+xml</dc:format>
        <dc:type
           rdf:resource="http://purl.org/dc/dcmitype/StillImage" />
        <dc:title></dc:title>
      </cc:Work>
    </rdf:RDF>
  </metadata>
  <defs
     id="defs3717" />
  <sodipodi:namedview
     pagecolor="#ffffff"
     bordercolor="#666666"
     borderopacity="1"
     objecttolerance="10"
     gridtolerance="10"
     guidetolerance="10"
     inkscape:pageopacity="0"
     inkscape:pageshadow="2"
     inkscape:window-width="1600"
     inkscape:window-height="837"
     id="namedview3715"
     showgrid="false"
     inkscape:zoom="1.2041667"
     inkscape:cx="380.68074"
     inkscape:cy="127.83441"
     inkscape:window-x="-8"
     inkscape:window-y="-8"
     inkscape:window-maximized="1"
     inkscape:current-layer="svg3713" />
  <path
     id="path3723"
     style="fill:#000000;stroke:#000000;stroke-opacity:1;stroke-width:1.7;stroke-miterlimit:4;stroke-dasharray:none"
     d="m 106.45508,5.4160156 c -1.4455,0.1058161 -1.88006,1.3842512 -3.50977,6.3730464 -1.20582,3.691201 -2.47393,7.009403 -2.81836,7.375 -0.344417,0.365599 -3.165589,0.975557 -6.269528,1.353516 l -5.644531,0.685547 -4.144532,-6.101563 C 81.789305,11.745506 79.546322,9 79.083984,9 75.595497,9 61.998447,17.293252 62,19.419922 c 4.34e-4,0.594264 1.344394,3.919879 2.986328,7.390625 l 2.986328,6.310547 -3.236328,4.474609 c -3.531163,4.882186 -3.133065,4.806173 -15.255859,2.865235 l -4.019531,-0.642579 -1.759766,4.890625 c -0.967458,2.69041 -2.126896,7.218444 -2.576172,10.060547 l -0.816406,5.166016 7.080078,2.361328 7.080078,2.359375 1.037109,5.921875 L 56.541016,76.5 50.271484,80.771484 C 46.822677,83.120569 44,85.42719 44,85.898438 44,89.400765 52.286836,103.00156 54.419922,103 c 0.594264,-4.3e-4 3.919879,-1.3444 7.390625,-2.98633 l 6.310547,-2.986326 4.474609,3.236326 c 4.885721,3.53372 4.807651,3.12263 2.853516,15.32813 l -0.654297,4.09179 6.853516,2.08985 c 3.768867,1.14956 8.28242,2.32809 10.03125,2.61914 3.165469,0.52682 3.19062,0.49705 5.580078,-6.68164 l 2.40039,-7.21094 5.851564,-0.89062 c 5.71295,-0.86939 5.90807,-0.82179 8.16601,2 2.96808,3.70928 2.91531,4.1308 -0.45117,3.63671 -2.53014,-0.37135 -2.92819,0.0221 -4.52929,4.47461 -0.96534,2.68451 -2.12285,7.20583 -2.57227,10.04883 l -0.81641,5.16992 6.59571,2.1543 c 3.62773,1.1847 6.87657,2.43487 7.21875,2.7793 0.34218,0.34443 0.92032,2.60659 1.28515,5.02539 l 0.66211,4.39648 -6.57226,-6.14648 C 110.88343,139.76714 107.45229,137 106.87305,137 c -0.57924,0 -3.59225,2.26359 -6.69532,5.0293 -4.916384,4.38192 -6.029966,4.94394 -8.660152,4.38086 -4.186147,-0.89617 -3.866506,-0.45932 -6.52539,-8.9375 l -2.400391,-7.65235 -5.529297,0.69141 c -5.171568,0.64615 -13.848793,3.39772 -16.912109,5.36328 -1.125894,0.72242 -1.082076,2.16745 0.269531,8.70312 l 1.621094,7.83594 -2.392578,2.39258 -2.392579,2.39258 -7.810547,-1.61524 c -6.240048,-1.29047 -7.972657,-1.36075 -8.623046,-0.3496 -1.911701,2.97208 -4.670389,11.71034 -5.306641,16.80273 l -0.6875,5.5 7.783203,2.52539 c 7.147202,2.31899 7.853891,2.79177 8.625,5.76758 0.772201,2.98002 0.421377,3.7222 -4.359375,9.21875 -5.002447,5.75143 -5.147289,6.07875 -3.789062,8.65039 1.797991,3.40428 11.63887,13.07898 14.097656,13.85937 1.316998,0.418 3.610125,-0.91553 7.779297,-4.52734 5.362955,-4.64601 6.201317,-5.04552 9.052734,-4.30664 2.844038,0.73696 3.395246,1.56034 5.792969,8.65625 l 2.648437,7.83984 5.345704,-0.62695 c 5.670229,-0.66642 15.912742,-3.91275 17.566402,-5.56641 0.65132,-0.65132 0.41622,-3.63032 -0.6914,-8.73437 l -1.68164,-7.74609 2.29492,-2.29297 2.29297,-2.29493 7.83594,1.6211 c 6.53565,1.3516 7.9807,1.39543 8.70312,0.26953 1.98595,-3.09509 4.90445,-12.25522 5.48828,-17.22266 0.58748,-4.99856 0.48017,-5.37349 -1.74219,-6.00976 -2.27905,-0.65249 -2.22682,-0.75416 1.38477,-2.67383 l 3.75586,-1.99805 4.5293,3.27735 c 4.98999,3.61096 4.78595,2.43702 2.76367,15.96093 l -0.55078,3.6836 6.87304,1.98828 c 13.52603,3.91034 12.74647,4.12535 15.85743,-4.4043 1.49476,-4.09845 3.28413,-7.45117 3.97656,-7.45117 0.69244,0 3.29467,-0.27831 5.78125,-0.61914 l 4.52148,-0.62109 4.1543,6.12109 c 2.28569,3.36583 4.70213,6.10976 5.36914,6.09766 2.23722,-0.0405 9.87923,-3.94323 13.79297,-7.04297 l 3.87695,-3.07032 -3.49805,-6.94726 -3.5,-6.94922 3.27149,-4.51953 c 3.56992,-4.93368 3.15382,-4.85309 15.28906,-2.91016 l 4.01953,0.64258 1.75977,-4.89062 c 0.96746,-2.69041 2.12675,-7.21755 2.57617,-10.06055 l 0.81641,-5.16992 -6.59571,-2.1543 c -3.62773,-1.1847 -6.89417,-2.43487 -7.25976,-2.7793 -0.3656,-0.34443 -0.97556,-3.16559 -1.35352,-6.26953 l -0.68554,-5.64453 6.10156,-4.14453 c 3.35606,-2.27905 6.09218,-4.68846 6.08008,-5.35547 C 220.9099,114.92382 212.80595,101.998 210.5,102 c -0.55,4.2e-4 -3.8398,1.3444 -7.31055,2.98633 l -6.31054,2.98633 -4.47461,-3.23633 c -4.88572,-3.53372 -4.80766,-3.12263 -2.85352,-15.328127 l 0.6543,-4.091797 -6.85352,-2.089844 c -3.76887,-1.149557 -8.28242,-2.328089 -10.03125,-2.61914 -3.16547,-0.526818 -3.19063,-0.497052 -5.58008,6.68164 L 165.33984,94.5 l -5.85156,0.890625 c -5.71295,0.869363 -5.90807,0.821778 -8.16601,-2 -2.96808,-3.70925 -2.91531,-4.130813 0.45117,-3.636719 2.53014,0.371345 2.92819,-0.0221 4.52929,-4.474609 0.96534,-2.684515 2.12285,-7.205828 2.57227,-10.048828 l 0.81641,-5.169922 -6.59571,-2.154297 c -3.62773,-1.184701 -6.89417,-2.434865 -7.25976,-2.779297 -0.3656,-0.344431 -0.97556,-3.165592 -1.35352,-6.269531 l -0.68554,-5.644531 6.10156,-4.144532 c 3.35606,-2.279054 6.09218,-4.688462 6.08008,-5.355468 C 155.9099,39.923826 147.80595,26.9982 145.5,27 c -0.55,4.18e-4 -3.8398,1.344394 -7.31055,2.986328 l -6.31054,2.986328 -4.47461,-3.236328 c -4.88572,-3.533719 -4.80766,-3.122634 -2.85352,-15.328125 l 0.6543,-4.091797 -6.85352,-2.0898435 c -3.76887,-1.1495594 -8.28345,-2.3279059 -10.0332,-2.6191406 -0.78828,-0.131205 -1.38145,-0.2266783 -1.86328,-0.1914063 z m 3.23242,5.2500004 c 0.27442,-0.0054 0.57921,0.0097 0.92188,0.0332 5.40268,0.371042 10.45576,2.50546 9.9746,4.214843 -0.24538,0.871742 -0.9803,4.274528 -1.63281,7.560547 -1.06474,5.361958 -1.00865,6.079724 0.54102,7 0.94969,0.563981 3.93106,2.754718 6.625,4.867188 l 4.89648,3.839844 6.71875,-3.142579 c 7.55352,-3.534717 7.30717,-3.625151 11.3418,4.164063 l 1.91797,3.701172 -6.45117,4.603515 c -5.96606,4.257298 -6.37874,4.791756 -5.4961,7.113282 0.52485,1.38048 0.95508,4.918928 0.95508,7.863281 v 5.353516 l 6.75,2.205078 c 3.7125,1.21291 7.1321,2.553522 7.59961,2.980469 0.46752,0.42694 0.10124,3.35405 -0.81445,6.503906 l -1.66407,5.726562 -4.18554,-0.611328 c -2.30183,-0.33624 -5.78478,-0.886707 -7.73828,-1.224609 -3.28511,-0.568236 -3.74177,-0.327262 -6.09766,3.232422 -1.40094,2.116775 -3.69894,4.956982 -5.10547,6.310547 l -2.55664,2.460937 3.4668,6.884765 c 3.90047,7.7453 3.96859,7.54188 -3.88868,11.72852 l -3.73632,1.99023 -4.26368,-6.49805 C 114.77853,104.97631 113.05059,103.2076 112,103.625 c -0.825,0.32777 -4.51243,0.83137 -8.19531,1.11719 l -6.697268,0.51953 -2.6875,7.36914 c -1.47829,4.05322 -2.965859,7.33788 -3.304688,7.30078 -1.857979,-0.20356 -10.237341,-2.71976 -10.74414,-3.22656 -0.327779,-0.32778 -0.0941,-3.46988 0.517578,-6.98242 1.494609,-8.58267 1.602531,-8.1325 -2.638672,-10.939457 -2.0625,-1.365023 -4.857371,-3.632532 -6.210938,-5.039062 L 69.578125,91.1875 62.603516,94.699219 c -7.841156,3.948742 -7.563907,4.041708 -11.667969,-3.88086 l -1.90625,-3.68164 5.736328,-4.06836 c 3.15439,-2.237748 6.072852,-4.180534 6.486328,-4.318359 0.413477,-0.137826 0.300951,-1.823089 -0.25,-3.744141 C 60.451003,73.084807 60,69.409181 60,66.837891 v -4.675782 l -6.75,-2.205078 c -3.7125,-1.21291 -7.125161,-2.54659 -7.583984,-2.964843 -0.458823,-0.418254 -0.05875,-3.523804 0.888672,-6.900391 1.326765,-4.72856 2.092671,-6.033739 3.333984,-5.683594 0.886401,0.250033 4.299918,0.988111 7.585937,1.640625 5.361958,1.064739 6.079724,1.008648 7,-0.541016 0.563981,-0.949694 2.754718,-3.93106 4.867188,-6.625 l 3.839844,-4.896484 -3.142579,-6.71875 C 67.052996,20.8865 66.98488,20.482862 68.697266,19.197266 c 2.397439,-1.79991 9.430324,-5.42174 9.74414,-5.017578 0.136556,0.175867 2.125835,3.118574 4.419922,6.539062 3.888269,5.797415 4.344671,6.153365 6.720703,5.25 C 90.983895,25.435762 94.53906,25 97.482422,25 h 5.351558 l 2.44141,-7.25 c 2.02671,-6.015713 2.4912,-7.046319 4.41211,-7.083984 z M 99.400391,50.298828 c -1.245983,0.03192 -2.504534,0.239994 -3.748047,0.650391 -6.94769,2.292944 -11.499286,9.717175 -10.201172,16.636719 0.828181,4.414585 5.838395,10.145524 9.90039,11.322265 4.247276,1.23042 4.602718,1.232851 8.816408,0.0625 4.50893,-1.252353 9.50897,-6.737216 10.38086,-11.384765 1.69645,-9.042868 -6.42656,-17.510557 -15.148439,-17.28711 z m 0.939449,4.88086 c 1.3558,0.04799 2.76848,0.369075 4.1875,1.015624 6.87376,3.131893 7.07729,13.888784 0.32813,17.378907 -5.074895,2.62433 -10.83828,1.048249 -13.460939,-3.683594 -4.033085,-7.276555 1.624015,-14.970064 8.945309,-14.710937 z m 74.34766,30.486328 c 0.27442,-0.0054 0.5792,0.0097 0.92188,0.0332 5.40268,0.371042 10.45576,2.505463 9.9746,4.214843 -0.24538,0.871743 -0.9803,4.274528 -1.63281,7.560547 -1.06474,5.361961 -1.00865,6.079721 0.54102,7.000001 0.94969,0.56398 3.93106,2.75472 6.625,4.86719 l 4.89648,3.83984 6.71875,-3.14258 c 7.55352,-3.53472 7.30717,-3.62512 11.3418,4.16406 l 1.91797,3.70118 -6.45117,4.60351 c -5.96606,4.25729 -6.37874,4.79176 -5.4961,7.11328 0.52485,1.38047 0.95508,4.91892 0.95508,7.86329 v 5.35351 l 6.75,2.20508 c 3.7125,1.21291 7.1321,2.55353 7.59961,2.98047 0.46752,0.42695 0.10124,3.35404 -0.81445,6.5039 l -1.66407,5.72657 -4.18554,-0.61133 c -2.30183,-0.33624 -5.78478,-0.88671 -7.73828,-1.22461 -3.28511,-0.56824 -3.74177,-0.32727 -6.09766,3.23242 -1.40094,2.11677 -3.69894,4.95699 -5.10547,6.31055 l -2.55664,2.46094 3.4668,6.88476 c 3.90047,7.7453 3.96859,7.54188 -3.88868,11.72852 l -3.73632,1.99023 -4.26368,-6.49805 C 179.77853,179.97633 178.05059,178.2076 177,178.625 c -0.825,0.32777 -4.51243,0.83137 -8.19531,1.11719 l -6.69727,0.51953 -2.6875,7.36914 c -1.4783,4.05322 -2.96586,7.33788 -3.30469,7.30078 -1.85798,-0.20356 -10.23734,-2.71976 -10.74414,-3.22656 -0.32778,-0.32778 -0.0941,-3.46988 0.51758,-6.98242 1.49461,-8.58267 1.60253,-8.1325 -2.63867,-10.93946 -2.0625,-1.36502 -4.85738,-3.63253 -6.21094,-5.03906 l -2.46094,-2.55664 -6.76367,3.40625 c -3.72021,1.87346 -6.9825,3.40625 -7.24804,3.40625 -0.26555,0 -1.70523,-2.08547 -3.19922,-4.63477 l -2.71485,-4.63476 4.92578,-4.69922 c 2.70911,-2.5843 5.48813,-4.88601 6.17579,-5.11523 0.94265,-0.31422 1.00328,-1.27677 0.24804,-3.91016 C 125.451,148.0848 125,144.40918 125,141.83789 v -4.67578 l -6.75,-2.20508 c -3.7125,-1.21291 -7.12516,-2.54659 -7.58398,-2.96484 -1.32966,-1.2121 2.39331,-13.18272 3.91796,-12.59766 0.71037,0.2726 4.12964,1.0098 7.59766,1.63867 5.7656,1.04551 6.3899,0.98541 7.31055,-0.69531 0.55377,-1.01095 2.69531,-3.50641 4.75781,-5.54687 2.0625,-2.04047 3.75043,-4.29047 3.75,-5 -4.3e-4,-0.70954 -1.31206,-4.06096 -2.91406,-7.44727 l -2.91211,-6.158203 2.16211,-1.974609 c 2.24789,-2.053163 8.66052,-5.601169 9.10156,-5.035157 0.13874,0.178055 2.12975,3.122481 4.42383,6.542969 3.88827,5.79741 4.34466,6.15336 6.7207,5.25 C 155.98389,100.43576 159.53905,100 162.48242,100 h 5.35156 l 2.44141,-7.25 c 2.02671,-6.015713 2.4912,-7.046319 4.41211,-7.083984 z M 345.88086,99.945312 C 331.07858,99.798881 321,110.0111 321,126.52344 c 0,13.15137 5.80081,21.7978 16.5,24.5957 3.54515,0.92708 12.4662,0.26617 17.75,-1.31445 l 3.75,-1.1211 V 135.3418 122 h -9 -9 v 3.44336 c 0,3.3351 0.13259,3.4521 4.25,3.75 l 4.25,0.30664 0.29297,6.61719 0.29297,6.61523 -3.14063,0.62891 c -6.48639,1.29727 -12.01001,-1.56489 -14.36133,-7.44141 -2.14045,-5.34951 -2.05437,-15.47708 0.16797,-19.90039 3.67889,-7.32236 10.83657,-9.56586 20.83985,-6.53125 2.69991,0.81904 5.0207,1.494 5.1582,1.5 0.1375,0.006 0.25,-1.95943 0.25,-4.36914 0,-4.34974 -0.0325,-4.38933 -4.44336,-5.5 -3.03106,-0.76323 -5.93462,-1.14671 -8.67578,-1.173828 z m 172,0 C 503.07858,99.798881 493,110.0111 493,126.52344 c 0,13.15137 5.80081,21.7978 16.5,24.5957 3.54515,0.92708 12.4662,0.26617 17.75,-1.31445 l 3.75,-1.1211 V 135.3418 122 h -9 -9 v 3.44336 c 0,3.3351 0.13259,3.4521 4.25,3.75 l 4.25,0.30664 0.29297,6.61719 0.29297,6.61523 -3.14063,0.62891 c -6.48639,1.29727 -12.01001,-1.56489 -14.36133,-7.44141 -2.14045,-5.34951 -2.05437,-15.47708 0.16797,-19.90039 3.67889,-7.32236 10.83657,-9.56586 20.83985,-6.53125 2.69991,0.81904 5.0207,1.494 5.1582,1.5 0.1375,0.006 0.25,-1.95943 0.25,-4.36914 0,-4.34974 -0.0325,-4.38933 -4.44336,-5.5 -3.03106,-0.76323 -5.93462,-1.14671 -8.67578,-1.173828 z m 39.58203,0.06641 c -13.05992,0.16537 -20.67393,7.15996 -18.33594,17.98828 0.95232,4.41064 4.97772,7.82603 12.74219,10.80859 3.30444,1.26934 7.16161,3.21419 8.57031,4.32227 4.67252,3.67541 2.59672,8.89605 -4.10156,10.31836 -2.83742,0.6025 -13.20327,-0.69261 -16.90039,-2.11133 -1.12072,-0.43006 -1.4375,0.45371 -1.4375,4.00977 0,4.49582 0.0541,4.57075 3.75,5.17382 2.0625,0.33654 4.425,0.78076 5.25,0.98633 3.28019,0.81735 14.70127,-0.69862 18,-2.38867 1.925,-0.98625 4.55335,-3.32987 5.83984,-5.20703 1.94016,-2.83101 2.26363,-4.34085 1.90039,-8.86133 -0.38423,-4.78169 -0.88821,-5.83857 -4.10937,-8.62305 -2.01918,-1.74544 -6.30662,-4.13426 -9.52734,-5.30859 C 552.55122,118.73005 548,115.57685 548,113.42773 c 0,-0.78508 0.95984,-2.38757 2.13281,-3.56054 1.93532,-1.93532 2.907,-2.08504 10.5,-1.61133 L 569,108.7793 v -3.75977 c 0,-3.56629 -0.19177,-3.78881 -3.75,-4.37695 -2.76338,-0.45676 -5.36861,-0.66149 -7.78711,-0.63086 z m -173.16601,0.18164 c -3.25609,-0.0197 -6.52572,0.64189 -9.32618,2.05664 -7.7471,3.91371 -10.95484,10.88194 -10.96484,23.81836 -0.0101,13.73883 3.87284,21.27776 12.63086,24.51953 7.26574,2.6894 17.35831,-0.093 21.89062,-6.03516 7.00596,-9.18529 6.8294,-30.86089 -0.3164,-38.9082 -3.10158,-3.49287 -8.48726,-5.41832 -13.91406,-5.45117 z M 409,101 v 19.53125 c 0,21.31647 0.69846,24.91378 5.44141,28.02148 1.43472,0.94006 4.06026,2.0759 5.83398,2.52344 4.06889,1.02664 12.23503,0.22774 15.63281,-1.52929 7.58578,-3.92278 8.99423,-8.71177 9.04883,-30.79688 L 445,101 h -4.5 -4.5 v 17.35156 C 436,141.42693 435.01075,144 426.13867,144 c -3.12281,0 -4.44556,-0.57421 -6.0664,-2.63477 C 418.14185,138.9111 418,137.43639 418,119.86523 V 101 h -4.5 z m 44,0 v 25 25 h 4.5 4.5 v -10.5 c 0,-10.25978 0.0519,-10.5 2.27734,-10.5 4.03617,0 6.42469,2.77134 10.32422,11.98047 L 478.41992,151 h 5.29102 c 2.90937,0 5.28906,-0.23259 5.28906,-0.51758 0,-1.43515 -10.03841,-20.26978 -11.41016,-21.4082 -2.22721,-1.84841 -2.0062,-2.47879 1.30469,-3.72852 5.73388,-2.16412 8.47491,-10.1308 5.74024,-16.67578 -2.4066,-5.75981 -7.48825,-7.62104 -20.88477,-7.64844 z m -69.18555,7.10352 c 3.91656,0.0827 7.78382,2.78502 9.14649,7.6914 1.70851,6.1516 1.23984,17.16689 -0.9336,21.95508 -1.06103,2.3375 -2.06635,4.25 -2.23437,4.25 -0.16802,0 -1.65246,0.365 -3.29883,0.81055 -6.6096,1.78871 -10.8683,-1.47542 -12.56055,-9.62696 -1.36084,-6.5551 -0.48064,-16.44825 1.80664,-20.32031 1.95129,-3.30326 5.02801,-4.8241 8.07422,-4.75976 z M 462.5,108.5 l 4.71094,0.0606 c 3.10928,0.0399 5.40501,0.68709 6.75,1.90429 2.66512,2.41191 2.69094,7.63443 0.0488,10.02539 -1.13197,1.02442 -4.17035,2.01072 -7.04688,2.28711 l -5.05664,0.48633 0.29687,-7.38281 z m -203.73633,2.83594 c -3.607,0.0224 -7.11453,1.2897 -9.29687,3.70117 C 247.07957,117.67497 246,117.50818 246,114.5 c 0,-2.19048 -0.43333,-2.5 -3.5,-2.5 H 239 v 27 27 h 4.5 4.5 v -7.5 -7.5 l 6.25,-0.0156 c 8.10004,-0.0213 13.20399,-2.7854 16.42578,-8.89258 4.52253,-8.57285 2.3589,-24.40259 -3.89453,-28.5 -2.34731,-1.53802 -5.21213,-2.27326 -8.01758,-2.25586 z m 18.41992,0.5664 7.40821,18.79883 c 4.07437,10.3391 7.4082,19.55 7.4082,20.47071 0,0.92068 -1.16595,3.05976 -2.58984,4.75195 -2.1704,2.57937 -3.30196,3.07617 -7,3.07617 H 278 v 4 4 h 4.28906 c 5.78936,0 12.47233,-3.55929 16.35547,-8.70898 C 301.08945,155.04865 318,114.94626 318,112.39062 c 0,-0.27522 -2.12646,-0.36295 -4.72656,-0.19531 l -4.72852,0.30469 -5.02148,13.74609 c -2.7624,7.56068 -5.29285,13.748 -5.62305,13.75 -0.3302,0.002 -2.8052,-6.18359 -5.5,-13.74609 L 287.5,112.5 l -5.1582,-0.29883 z m -19.92773,7.14649 c 2.98974,-0.0805 5.31784,2.5716 6.34766,7.7207 0.99743,4.98717 -0.43904,11.75974 -3.10352,14.63477 -1.97711,2.13333 -3.30394,2.5957 -7.45312,2.5957 H 248 v -9.30469 c 0,-9.21136 0.032,-9.3356 3.29688,-12.5 2.13282,-2.06722 4.16514,-3.09817 5.95898,-3.14648 z m -92.85547,6.25 c -1.24598,0.0319 -2.50453,0.23999 -3.74805,0.65039 -6.94769,2.29294 -11.49928,9.71718 -10.20117,16.63672 0.82818,4.41459 5.8384,10.14552 9.90039,11.32226 4.24728,1.23043 4.60273,1.23285 8.81641,0.0625 4.50893,-1.25235 9.50897,-6.73721 10.38086,-11.38476 1.69645,-9.04286 -6.42656,-17.51056 -15.14844,-17.28711 z m 0.93945,4.88086 c 1.3558,0.048 2.76848,0.36907 4.1875,1.01562 6.87376,3.13189 7.07729,13.88878 0.32813,17.37891 -5.07489,2.62433 -10.83633,1.04829 -13.45899,-3.6836 -4.03309,-7.27655 1.62205,-14.97006 8.94336,-14.71093 z m -86.992184,4.59765 c 0.676155,0.0135 1.022221,0.18922 1.125,0.52149 C 83.526975,148.40573 84.246034,150 86.113281,150 c 1.072824,0 3.596801,0.68725 5.607422,1.52734 l 3.654297,1.52735 4.5625,-4.33399 c 7.76254,-7.37454 7.0532,-7.30505 13.01953,-1.26367 l 5.32617,5.39453 -5.5957,5.86524 -5.5957,5.86718 1.41015,3.95704 c 0.7754,2.17697 1.43098,4.70929 1.45508,5.62695 0.0306,1.1619 2.09237,2.33927 6.79297,3.875 3.7125,1.21291 7.14798,2.5694 7.63477,3.01562 0.85588,0.78456 -0.31453,6.99595 -2.30469,12.23047 l -0.93164,2.44922 -7.6543,-1.52344 -7.65625,-1.52343 -4.05078,4.05078 -4.052735,4.05273 1.365234,6.85156 c 0.750216,3.76898 1.370661,7.28788 1.380861,7.81836 0.0102,0.53047 -2.45547,1.74104 -5.48047,2.68946 -3.025,0.94843 -6.301488,1.75155 -7.28125,1.78515 -1.936291,0.0664 -2.097588,-0.23047 -4.714844,-8.68945 -1.643272,-5.31107 -2.028134,-5.76854 -5.445312,-6.47852 -2.022791,-0.42028 -4.56659,-1.24118 -5.652344,-1.82226 -1.681477,-0.8999 -2.888805,-0.22863 -8.146484,4.5293 l -6.171875,5.58593 -5.464844,-5.46289 -5.464844,-5.46484 5.619141,-6.07031 5.61914,-6.06836 -1.447265,-3.4668 C 55.652582,184.62463 55,182.18649 55,181.11328 c 0,-1.56457 -1.493066,-2.39517 -7.537109,-4.18945 -4.145891,-1.23078 -7.726352,-2.54007 -7.955079,-2.91016 -0.373114,-0.60371 3.261019,-14.02965 4.019532,-14.84961 0.171017,-0.18487 3.729186,0.42422 7.90625,1.35352 l 7.59375,1.68945 4.064453,-4.0625 4.0625,-4.06445 -1.689453,-7.59375 c -0.929308,-4.17707 -1.519869,-7.76529 -1.3125,-7.97266 0.207369,-0.20737 3.654877,-1.28407 7.662109,-2.39453 3.361522,-0.93152 5.406279,-1.36432 6.533203,-1.3418 z M 82.802734,165 c -6.482624,0 -12.794918,6.16683 -12.794922,12.5 0,4.14903 3.399162,9.32829 7.261719,11.06445 9.851652,4.42816 20.416916,-5.22067 16.625,-15.18359 C 92.189705,168.90158 87.025845,165 82.802734,165 Z m -0.162109,5 c 6.471702,0 9.770294,8.38691 5.044922,12.82617 C 82.846817,187.37192 75,183.98998 75,177.35938 75,173.49473 78.628803,170 82.640625,170 Z" />
  <path
     style="fill:#ffeeaa;stroke:#000000;stroke-width:1.66089964;stroke-miterlimit:4;stroke-dasharray:none;stroke-opacity:1"
     d="m 84.656457,212.41118 c -1.211158,-3.63678 -2.647883,-6.96896 -3.19272,-7.40484 -1.120321,-0.89627 -9.737892,-3.48435 -11.601889,-3.48435 -0.671387,0 -3.524191,2.05536 -6.339566,4.56747 -2.815373,2.51211 -5.397778,4.56748 -5.738676,4.56748 -0.340898,0 -2.58848,-1.99343 -4.994627,-4.42984 -3.86474,-3.91335 -4.222067,-4.55661 -3.064745,-5.5171 0.720537,-0.59799 3.132647,-3.19109 5.360244,-5.76244 l 4.050176,-4.67518 -1.917095,-5.69664 c -1.054403,-3.13316 -2.419338,-6.01495 -3.033188,-6.40399 -0.613851,-0.38904 -3.545158,-1.50673 -6.514016,-2.48375 -2.968858,-0.97703 -5.696543,-2.04746 -6.061523,-2.37875 -0.937853,-0.85129 1.922832,-11.70618 3.215787,-12.20234 0.587709,-0.22552 4.138129,0.21603 7.889823,0.98123 l 6.821261,1.39128 4.464788,-4.46479 4.464788,-4.46479 -1.564917,-7.62966 -1.564916,-7.62967 4.247039,-1.21911 c 9.394541,-2.69669 8.359134,-3.11277 10.84748,4.35906 1.217799,3.65672 2.659956,7.00058 3.204793,7.43079 0.544838,0.43022 3.535353,1.61724 6.645589,2.63782 l 5.654975,1.8556 5.276608,-5.06686 c 2.90213,-2.78677 5.57748,-5.06686 5.94521,-5.06686 0.36773,0 2.64399,1.95085 5.05835,4.33522 l 4.38974,4.33522 -5.47113,5.51338 -5.47114,5.51339 1.74758,5.65801 c 0.96117,3.11191 2.11957,6.10623 2.57422,6.65406 0.45466,0.54782 3.62337,2.01606 7.04159,3.26275 7.01859,2.55983 7.14405,2.82035 4.93709,10.25198 -0.72355,2.43645 -1.7657,4.30298 -2.40252,4.30298 -0.61857,0 -4.01881,-0.59852 -7.55609,-1.33005 l -6.43142,-1.33004 -4.58098,4.58098 -4.580974,4.58097 1.374039,6.92208 c 0.755721,3.80715 1.373749,7.19192 1.373394,7.52172 -5.53e-4,0.51386 -1.855518,1.13334 -10.925571,3.64866 -1.08124,0.29985 -1.844907,-1.0305 -3.576861,-6.23108 z m 5.142354,-23.88366 c 4.238157,-3.16424 5.622409,-5.87407 5.622409,-11.00651 0,-3.95516 -0.401019,-5.30459 -2.326666,-7.82925 -2.919268,-3.82735 -6.179281,-5.54001 -10.545307,-5.54001 -8.372958,0 -15.298764,8.52466 -13.174954,16.21647 0.898252,3.2532 5.096629,8.46983 7.731627,9.60681 2.819301,1.21651 10.261493,0.3678 12.692891,-1.44751 z"
     id="path4912"
     inkscape:connector-curvature="0" />
  <path
     style="fill:#e9ddaf;stroke:#000000;stroke-width:1.66089964;stroke-miterlimit:4;stroke-dasharray:none;stroke-opacity:1"
     d="m 85.161955,117.06782 -3.615667,-1.27808 0.647954,-5.50758 c 0.995284,-8.45987 0.810548,-9.42117 -2.254493,-11.73164 -1.517937,-1.144235 -4.302908,-3.481819 -6.188824,-5.194622 -1.885917,-1.712802 -3.863605,-3.114186 -4.394864,-3.114186 -0.531258,0 -3.563183,1.307958 -6.737609,2.906574 -3.174427,1.598616 -6.148423,2.906574 -6.608878,2.906574 -0.673566,0 -5.01742,-7.407903 -5.01742,-8.556585 0,-0.169016 2.652615,-2.136243 5.894699,-4.371614 l 5.894698,-4.064313 -0.597748,-4.168103 c -0.328761,-2.292458 -0.832586,-6.336711 -1.119612,-8.98723 L 60.542327,61.087888 53.898728,58.78297 c -4.354469,-1.510732 -6.736854,-2.787033 -6.914249,-3.70413 -0.148858,-0.769566 0.331968,-3.213527 1.068501,-5.431022 l 1.339153,-4.03181 5.159872,1.107208 c 9.015807,1.934617 9.001695,1.939875 14.642519,-5.455692 2.777624,-3.641685 5.050225,-6.974556 5.050225,-7.406378 0,-0.431823 -1.299117,-3.495935 -2.886927,-6.809138 -3.234354,-6.748965 -3.41566,-6.203568 3.244261,-9.759305 l 3.263909,-1.742604 3.561019,5.308233 c 1.95856,2.919528 3.882805,5.507108 4.276101,5.750178 0.393295,0.24307 4.642907,0.219515 9.443584,-0.05234 l 8.728504,-0.494291 2.2605,-6.941224 c 2.22625,-6.83604 2.30189,-6.941224 4.99165,-6.941224 1.50213,0 3.94326,0.422547 5.42474,0.938993 2.44332,0.851744 2.64771,1.179688 2.19974,3.529411 -0.27162,1.424731 -0.7244,4.834721 -1.00618,7.577756 l -0.51232,4.987335 6.7984,5.206309 6.79839,5.206308 6.48312,-2.927208 c 3.56571,-1.609965 6.71006,-2.927209 6.98744,-2.927209 0.46236,0 4.68455,7.768512 4.68455,8.619222 0,0.203465 -2.38399,2.071112 -5.29774,4.150328 -5.70317,4.069697 -6.60127,5.370276 -5.83011,8.442824 0.27333,1.089026 0.74012,4.655138 1.03732,7.924693 l 0.54036,5.944647 6.46299,2.278537 c 3.55465,1.253195 6.69767,2.513217 6.98451,2.80005 0.28683,0.286831 0.0508,2.624896 -0.52453,5.195699 l -1.04603,4.674187 -3.86235,-0.555025 c -12.06962,-1.734427 -11.27853,-1.831636 -13.8641,1.703615 -1.29352,1.768628 -3.85116,4.800769 -5.68364,6.738091 l -3.33178,3.522402 3.08509,6.027764 c 1.6968,3.31527 3.07948,6.62236 3.07261,7.34908 -0.007,0.72672 -1.85927,2.32644 -4.11645,3.55495 l -4.10396,2.23366 -3.28276,-4.83409 c -4.77427,-7.03042 -4.86196,-7.07623 -12.35138,-6.45242 -11.184619,0.93159 -10.448948,0.47386 -13.447047,8.36663 -1.466831,3.86157 -3.112836,6.99153 -3.657789,6.95547 -0.544953,-0.036 -2.617873,-0.64069 -4.606489,-1.34362 z M 107.26135,78.843373 c 4.59054,-2.347457 8.50589,-8.551706 8.50589,-13.478393 0,-15.449587 -19.711397,-21.887549 -28.579781,-9.334475 -3.549087,5.023681 -3.931667,11.260329 -0.997853,16.266505 4.774843,8.147652 12.964766,10.692018 21.071744,6.546363 z"
     id="path4914"
     inkscape:connector-curvature="0" />
  <path
     style="fill:#cdde87;stroke:#000000;stroke-width:1.66089964;stroke-miterlimit:4;stroke-dasharray:none;stroke-opacity:1"
     d="m 149.81568,192.04772 c -3.24105,-1.19783 -3.37051,-1.83363 -2.17886,-10.70084 0.633,-4.71021 0.59103,-4.8592 -1.98821,-7.05882 -1.44917,-1.23587 -4.4902,-3.90742 -6.75784,-5.93677 l -4.12299,-3.68974 -6.98455,3.46398 -6.98454,3.46398 -2.26709,-3.8685 -2.26709,-3.8685 5.52859,-5.06059 5.52859,-5.06059 -0.4969,-8.77457 -0.4969,-8.77456 -6.91972,-2.2535 c -3.80584,-1.23943 -7.14134,-2.61209 -7.4122,-3.05036 -0.27087,-0.43828 0.11504,-2.8867 0.85758,-5.44094 1.27736,-4.39396 1.47044,-4.6172 3.58517,-4.14519 1.2293,0.27439 4.66416,0.71124 7.63302,0.97079 l 5.39792,0.47191 4.77509,-5.82997 c 2.6263,-3.20648 4.77509,-6.43751 4.77509,-7.18007 0,-0.74255 -1.13817,-3.94331 -2.52926,-7.11279 -1.3911,-3.169478 -2.28072,-6.164847 -1.97694,-6.656375 0.30378,-0.491528 2.25328,-1.972398 4.33222,-3.290823 l 3.7799,-2.397137 3.48053,5.188251 c 4.92564,7.342414 5.29581,7.574164 10.3624,6.487574 2.32352,-0.4983 6.03238,-0.90601 8.24189,-0.90601 h 4.0173 l 2.37781,-6.851212 c 2.70299,-7.788148 3.71167,-8.409861 9.84441,-6.067744 l 3.51488,1.342343 -1.1179,4.750244 c -2.11646,8.993319 -1.9732,9.380549 5.6104,15.164789 l 6.75425,5.15167 5.91011,-2.59485 c 3.25056,-1.42717 6.47066,-2.58854 7.15578,-2.58083 0.68512,0.008 2.25156,1.83829 3.48096,4.06796 l 2.23529,4.05394 -4.96313,3.48145 c -6.46802,4.53705 -7.62134,6.29961 -6.55502,10.01764 0.45056,1.57102 0.8192,5.11748 0.8192,7.88103 v 5.02462 l 7.05883,2.2988 c 7.78078,2.53392 7.81954,2.59144 6.16758,9.15198 l -0.89124,3.53942 -6.79042,-0.98692 c -3.73473,-0.54281 -7.21051,-0.82703 -7.72395,-0.6316 -0.51344,0.19543 -3.34135,3.2449 -6.28424,6.77661 l -5.35073,6.42128 3.14572,6.52064 c 1.73015,3.58635 2.95051,6.8365 2.71192,7.22255 -0.2386,0.38605 -2.16317,1.71539 -4.27683,2.95408 l -3.84303,2.25216 -1.71959,-2.37758 c -0.94577,-1.30766 -2.86844,-3.90494 -4.2726,-5.77171 l -2.55301,-3.39415 -5.75149,0.29217 c -3.16332,0.16069 -7.22497,0.54109 -9.02589,0.84534 -3.20246,0.54102 -3.33073,0.69881 -5.83775,7.18188 -2.81192,7.27153 -3.57473,7.78407 -8.74252,5.87416 z m 20.58031,-37.4902 c 9.60666,-4.01293 13.17709,-14.13394 7.95842,-22.55956 -6.75004,-10.89804 -21.51758,-10.1074 -27.55495,1.47528 -3.8178,7.32442 -0.53626,16.54193 7.30018,20.5055 4.33391,2.19203 8.0191,2.36549 12.29635,0.57878 z"
     id="path4920"
     inkscape:connector-curvature="0" />
</svg>
